<svg id="Layer_1" enable-background="new 0 0 512 512" height="512" viewBox="0 0 512 512" width="512" xmlns="http://www.w3.org/2000/svg"><path d="m256 0c-75.3.3-135 61.199-135 135 0 41.1 18.9 79.799 50.4 105 5.7 4.799 11.7 9 18.3 12.599 3.9 2.1 6.301 6.899 6.301 12.299v5.102l15 30h45 45l15-30v-5.101c0-5.4 2.401-10.199 6.599-12.299 6.3-3.6 12.6-7.801 18-12.6 32.1-25.501 50.7-64.2 50.4-105.901-.601-75.599-62.999-134.099-135-134.099z" fill="#f6d401"/><path d="m316 270v-5.101c0-5.4 2.401-10.199 6.599-12.299 6.301-3.6 12.601-7.801 18.001-12.6 32.1-25.501 50.7-64.2 50.4-105.901-.601-75.599-62.999-134.099-135-134.099v300h45z" fill="#fd9d34"/><path d="m286 120v36.973l-30 19.995-30-19.995v-36.973h-30v53.027l45 30.004v81.969h15 15v-81.969l45-30.004v-53.027z" fill="#fd9d34"/><path d="m271 203.031 45-30.004v-53.027h-30v36.973l-30 19.995v108.032h15z" fill="#ec5b20"/><path d="m68.646 260.493-15-25.986 51.958-30 15 25.986z" fill="#f6d401"/><path d="m406.396 65.493-15-25.986 51.958-30 15 25.986z" fill="#fd9d34"/><path d="m105.604 65.493-51.958-30 15-25.986 51.958 30z" fill="#f6d401"/><path d="m443.354 260.493-51.958-30 15-25.986 51.958 30z" fill="#fd9d34"/><path d="m31 120h60v30h-60z" fill="#f6d401"/><path d="m421 120h60v30h-60z" fill="#fd9d34"/><path d="m256 270h-60v92h60 60v-92z" fill="#e1ebf0"/><path d="m256 270h60v92h-60z" fill="#cde1e6"/><path d="m482 392v75h-151l-18.6 30h-117.301l-14.099-30h-151v-75h196c11.7 0 21.899 4.499 30 11.7 8.101-7.202 18.3-11.7 30-11.7z" fill="#fff7cc"/><path d="m482 392v75h-151l-18.6 30h-56.4v-93.3c8.101-7.202 18.3-11.7 30-11.7z" fill="#ffe6b3"/><path d="m512 452v30h-181v30h-150v-30h-181v-30h211v30h90v-30z" fill="#e86a36"/><path d="m512 452v30h-181v30h-75v-30h45v-30z" fill="#ba5529"/></svg>